<?xml version="1.0" encoding="UTF-8"?><svg id="uuid-e2ba2223-e9ff-4791-9a58-4c9bb0fcd139" xmlns="http://www.w3.org/2000/svg" viewBox="0 0 131.22 133.85"><g><path d="m116.86,38.26c3.59,2.74,4.51,3.44,4.51,3.44,6.86,4.44,6.86,7.61,6.86,11.88v69.52c0,4.27-3.7,7.76-8.23,7.76H11.23c-4.53,0-8.23-3.49-8.23-7.76V53.58c0-4.27,2.41-7.95,8.23-11.88,0,0,1.73-1.39,4.52-3.62" fill="none" stroke="#231f20" stroke-linecap="round" stroke-linejoin="round" stroke-width="6"/><path d="m49.46,11.23c2.05-1.61,4.9-3.82,6.02-4.66,6.45-4.84,13.79-4.6,19.55-.21,1.08.82,3.37,2.57,6.39,4.87" fill="none" stroke="#231f20" stroke-linecap="round" stroke-linejoin="round" stroke-width="6"/><path d="m125.51,127.64s-43.61-38.14-50.44-43.96c-6.21-5.29-11.89-5.75-18.63-.04-5.65,4.78-49.31,43.68-49.31,43.68" fill="none" stroke="#231f20" stroke-linecap="round" stroke-linejoin="round" stroke-width="6"/><line x1="126.88" y1="47.66" x2="80.54" y2="86.7" fill="none" stroke="#231f20" stroke-linecap="round" stroke-linejoin="round" stroke-width="6"/><line x1="50.98" y1="86.7" x2="7.13" y2="47.81" fill="none" stroke="#231f20" stroke-linecap="round" stroke-linejoin="round" stroke-width="6"/></g><path d="m15.75,55.45V19.46c0-4.53,3.76-8.23,8.35-8.23h84.42c4.59,0,8.35,3.7,8.35,8.23v37.81" fill="none" stroke="#231f20" stroke-linecap="round" stroke-linejoin="round" stroke-width="6"/><g><line x1="39.06" y1="43.83" x2="94.28" y2="43.83" fill="none" stroke="#231f20" stroke-linecap="round" stroke-linejoin="round" stroke-width="6"/><g><line x1="39.39" y1="31.95" x2="94.61" y2="31.95" fill="none" stroke="#231f20" stroke-linecap="round" stroke-linejoin="round" stroke-width="6"/><line x1="38.74" y1="55.71" x2="77.95" y2="55.71" fill="none" stroke="#231f20" stroke-linecap="round" stroke-linejoin="round" stroke-width="6"/></g></g></svg>