<?xml version="1.0" encoding="UTF-8"?><svg id="uuid-4a159a9b-ef4e-499f-aa95-281fd89b89d2" xmlns="http://www.w3.org/2000/svg" viewBox="0 0 144.92 129.04"><rect x="2.92" y="101.97" width="139.08" height="24.57" rx="8.18" ry="8.18" fill="none" stroke="#231f20" stroke-linecap="round" stroke-linejoin="round" stroke-width="5"/><circle cx="72.46" cy="69.16" r="19.22" fill="none" stroke="#231f20" stroke-linecap="round" stroke-linejoin="round" stroke-width="5"/><path d="m117.97,55.69l16.49,5.27c1.06.23,2.26.27,3.28.16s2-.56,2.76-1.5c1.1-.98,1.63-2.41,1.78-4.14l.14-24.07c.04-1.21-.26-2.38-.56-3.55-.75-2.15-2.52-4.19-3.49-5.29-.98-1.1-2.67-2.46-4.74-4.13-2.22-1.48-5.01-3.41-8.62-5.08-3.47-1.86-7.76-3.45-12.59-5.17-4.98-1.52-10.63-2.97-17.27-3.97-6.64-1-14.26-1.55-22.52-1.69-10.68-.22-20.03.62-27.77,2.15-7.74,1.52-14.23,3.43-19.67,5.57-5.25,2.29-9.33,4.27-12.35,6.49-3.02,2.22-6.16,4.96-7.87,6.69-.76.94-1.33,2.03-1.86,3.47-.38,1.24-.76,2.49-.46,3.66l-.14,24.07c-.12,2.07.74,3.7,2.25,4.91.49,1.32,2.22,1.48,4.41,1.07l18.19-4.54" fill="none" stroke="#231f20" stroke-linecap="round" stroke-linejoin="round" stroke-width="5"/><path d="m111.24,25.22h-20.64c0,5.32-4.35,9.68-9.68,9.68h-16.93c-5.32,0-9.68-4.35-9.68-9.68h-19.83l-17.74,76.76h111.43l-16.93-76.76Z" fill="none" stroke="#231f20" stroke-linecap="round" stroke-linejoin="round" stroke-width="5"/></svg>